<svg width="26" height="26" viewBox="0 0 26 26" fill="none" xmlns="http://www.w3.org/2000/svg">
<g clip-path="url(#clip0_5_3226)">
<path opacity="0.05" fill-rule="evenodd" clip-rule="evenodd" d="M13 26C20.1797 26 26 20.1797 26 13C26 5.8203 20.1797 0 13 0C5.8203 0 0 5.8203 0 13C0 20.1797 5.8203 26 13 26ZM13 24C19.0751 24 24 19.0751 24 13C24 6.92487 19.0751 2 13 2C6.92487 2 2 6.92487 2 13C2 19.0751 6.92487 24 13 24Z" fill="white"/>
<path fill-rule="evenodd" clip-rule="evenodd" d="M8 7C7.44772 7 7 7.44772 7 8V18C7 18.5523 7.44772 19 8 19H18C18.5523 19 19 18.5523 19 18V8C19 7.44772 18.5523 7 18 7H8ZM17 9H9V17H17V9Z" fill="#ED84D8"/>
</g>
<defs>
<clipPath id="clip0_5_3226">
<rect width="26" height="26" fill="white"/>
</clipPath>
</defs>
</svg>
