<svg width="26" height="26" viewBox="0 0 26 26" fill="none" xmlns="http://www.w3.org/2000/svg">
<g clip-path="url(#clip0_5_3227)">
<path opacity="0.05" fill-rule="evenodd" clip-rule="evenodd" d="M13 26C20.1797 26 26 20.1797 26 13C26 5.8203 20.1797 0 13 0C5.8203 0 0 5.8203 0 13C0 20.1797 5.8203 26 13 26ZM13 24C19.0751 24 24 19.0751 24 13C24 6.92487 19.0751 2 13 2C6.92487 2 2 6.92487 2 13C2 19.0751 6.92487 24 13 24Z" fill="white"/>
<path fill-rule="evenodd" clip-rule="evenodd" d="M7.70619 18C6.94219 18 6.46038 17.178 6.83371 16.5114L12.1281 7.05802C12.5099 6.37618 13.4913 6.37622 13.8731 7.05809L19.1665 16.5114C19.5397 17.178 19.0579 18 18.2939 18H7.70619ZM16.5 16H9.49999L13.0006 10L16.5 16Z" fill="#63E074"/>
</g>
<defs>
<clipPath id="clip0_5_3227">
<rect width="26" height="26" fill="white"/>
</clipPath>
</defs>
</svg>
