<svg width="34" height="26" viewBox="0 0 34 26" fill="none" xmlns="http://www.w3.org/2000/svg">
<rect y="3" width="34" height="20" rx="1" fill="#292929"/>
<path fill-rule="evenodd" clip-rule="evenodd" d="M14.815 8.73199C15.271 8.73199 15.659 8.80799 15.979 8.95999C16.299 9.112 16.561 9.31199 16.765 9.55999C16.969 9.808 17.117 10.09 17.209 10.406C17.301 10.722 17.347 11.04 17.347 11.36C17.347 11.576 17.315 11.794 17.251 12.014C17.187 12.234 17.097 12.442 16.981 12.638C16.865 12.834 16.723 13.018 16.555 13.19C16.387 13.362 16.199 13.508 15.991 13.628L17.467 17H15.427L14.179 13.952H13.003V17H11.095V8.73199H14.815ZM13.003 12.284H14.419C14.771 12.284 15.025 12.194 15.181 12.014C15.337 11.834 15.415 11.616 15.415 11.36C15.415 11.104 15.335 10.886 15.175 10.706C15.015 10.526 14.763 10.436 14.419 10.436H13.003V12.284ZM21.139 17V11.06L20.455 11.648L19.459 10.376L21.307 8.73199H22.903V17H21.139Z" fill="white"/>
</svg>
