<svg width="26" height="26" viewBox="0 0 26 26" fill="none" xmlns="http://www.w3.org/2000/svg">
<g clip-path="url(#clip0_5_3229)">
<path opacity="0.05" fill-rule="evenodd" clip-rule="evenodd" d="M13 26C20.1797 26 26 20.1797 26 13C26 5.8203 20.1797 0 13 0C5.8203 0 0 5.8203 0 13C0 20.1797 5.8203 26 13 26ZM13 24C19.0751 24 24 19.0751 24 13C24 6.92487 19.0751 2 13 2C6.92487 2 2 6.92487 2 13C2 19.0751 6.92487 24 13 24Z" fill="white"/>
<path fill-rule="evenodd" clip-rule="evenodd" d="M13.0429 11.6287L9 7.58578C9 7.58578 8.29289 6.87868 7.58578 7.58578C6.87868 8.29289 7.58578 9 7.58578 9L11.6287 13.0429L7.58578 17.0858C7.58578 17.0858 6.87868 17.7929 7.58578 18.5C8.29289 19.2071 9 18.5 9 18.5L13.0429 14.4571L17.0858 18.5C17.0858 18.5 17.7929 19.2071 18.5 18.5C19.2071 17.7929 18.5 17.0858 18.5 17.0858L14.4571 13.0429L18.5 9C18.5 9 19.2071 8.29289 18.5 7.58578C17.7929 6.87868 17.0858 7.58578 17.0858 7.58578L13.0429 11.6287Z" fill="#85B3ED"/>
</g>
<defs>
<clipPath id="clip0_5_3229">
<rect width="26" height="26" fill="white"/>
</clipPath>
</defs>
</svg>
