<svg width="26" height="26" viewBox="0 0 26 26" fill="none" xmlns="http://www.w3.org/2000/svg">
<g clip-path="url(#clip0_5_3228)">
<path opacity="0.05" fill-rule="evenodd" clip-rule="evenodd" d="M13 26C20.1797 26 26 20.1797 26 13C26 5.8203 20.1797 0 13 0C5.8203 0 0 5.8203 0 13C0 20.1797 5.8203 26 13 26ZM13 24C19.0751 24 24 19.0751 24 13C24 6.92487 19.0751 2 13 2C6.92487 2 2 6.92487 2 13C2 19.0751 6.92487 24 13 24Z" fill="white"/>
<path fill-rule="evenodd" clip-rule="evenodd" d="M13 20C16.866 20 20 16.866 20 13C20 9.13401 16.866 6 13 6C9.13401 6 6 9.13401 6 13C6 16.866 9.13401 20 13 20ZM13 18C15.7614 18 18 15.7614 18 13C18 10.2386 15.7614 8 13 8C10.2386 8 8 10.2386 8 13C8 15.7614 10.2386 18 13 18Z" fill="#F67170"/>
</g>
<defs>
<clipPath id="clip0_5_3228">
<rect width="26" height="26" fill="white"/>
</clipPath>
</defs>
</svg>
