<svg width="34" height="26" viewBox="0 0 34 26" fill="none" xmlns="http://www.w3.org/2000/svg">
<rect y="3" width="34" height="20" rx="1" fill="#292929"/>
<path fill-rule="evenodd" clip-rule="evenodd" d="M10.256 17V8.73201H12.14V15.296H16.064V17H10.256ZM23.748 11.048C23.748 11.328 23.696 11.59 23.592 11.834C23.488 12.078 23.356 12.302 23.196 12.506C23.036 12.71 22.86 12.9 22.668 13.076C22.476 13.252 22.292 13.412 22.116 13.556C21.98 13.668 21.814 13.794 21.618 13.934C21.422 14.074 21.23 14.222 21.042 14.378C20.854 14.534 20.686 14.7 20.538 14.876C20.39 15.052 20.296 15.232 20.256 15.416H23.7V17H18.42V15.848C18.42 15.504 18.468 15.186 18.564 14.894C18.66 14.602 18.786 14.332 18.942 14.084C19.098 13.836 19.28 13.608 19.488 13.4C19.696 13.192 19.908 13.004 20.124 12.836C20.34 12.668 20.554 12.512 20.766 12.368C20.978 12.224 21.168 12.08 21.336 11.936C21.504 11.792 21.638 11.648 21.738 11.504C21.838 11.36 21.888 11.208 21.888 11.048C21.888 10.856 21.812 10.692 21.66 10.556C21.508 10.42 21.264 10.352 20.928 10.352C20.68 10.352 20.422 10.396 20.154 10.484C19.886 10.572 19.636 10.72 19.404 10.928L18.48 9.50001C18.808 9.21201 19.2 8.99801 19.656 8.85801C20.112 8.71801 20.584 8.64801 21.072 8.64801C21.392 8.64801 21.712 8.68601 22.032 8.76201C22.352 8.83801 22.638 8.97001 22.89 9.15801C23.142 9.34601 23.348 9.59401 23.508 9.90201C23.668 10.21 23.748 10.592 23.748 11.048V11.048Z" fill="white"/>
</svg>
