<svg width="34" height="26" viewBox="0 0 34 26" fill="none" xmlns="http://www.w3.org/2000/svg">
<rect y="3" width="34" height="20" rx="1" fill="#292929"/>
<path fill-rule="evenodd" clip-rule="evenodd" d="M13.64 8.73201C14.096 8.73201 14.484 8.80801 14.804 8.96001C15.124 9.11201 15.386 9.31201 15.59 9.56001C15.794 9.80801 15.942 10.09 16.034 10.406C16.126 10.722 16.172 11.04 16.172 11.36C16.172 11.576 16.14 11.794 16.076 12.014C16.012 12.234 15.922 12.442 15.806 12.638C15.69 12.834 15.548 13.018 15.38 13.19C15.212 13.362 15.024 13.508 14.816 13.628L16.292 17H14.252L13.004 13.952H11.828V17H9.92V8.73201H13.64ZM11.828 12.284H13.244C13.596 12.284 13.85 12.194 14.006 12.014C14.162 11.834 14.24 11.616 14.24 11.36C14.24 11.104 14.16 10.886 14 10.706C13.84 10.526 13.588 10.436 13.244 10.436H11.828V12.284ZM24.084 11.048C24.084 11.328 24.032 11.59 23.928 11.834C23.824 12.078 23.692 12.302 23.532 12.506C23.372 12.71 23.196 12.9 23.004 13.076C22.812 13.252 22.628 13.412 22.452 13.556C22.316 13.668 22.15 13.794 21.954 13.934C21.758 14.074 21.566 14.222 21.378 14.378C21.19 14.534 21.022 14.7 20.874 14.876C20.726 15.052 20.632 15.232 20.592 15.416H24.036V17H18.756V15.848C18.756 15.504 18.804 15.186 18.9 14.894C18.996 14.602 19.122 14.332 19.278 14.084C19.434 13.836 19.616 13.608 19.824 13.4C20.032 13.192 20.244 13.004 20.46 12.836C20.676 12.668 20.89 12.512 21.102 12.368C21.314 12.224 21.504 12.08 21.672 11.936C21.84 11.792 21.974 11.648 22.074 11.504C22.174 11.36 22.224 11.208 22.224 11.048C22.224 10.856 22.148 10.692 21.996 10.556C21.844 10.42 21.6 10.352 21.264 10.352C21.016 10.352 20.758 10.396 20.49 10.484C20.222 10.572 19.972 10.72 19.74 10.928L18.816 9.50001C19.144 9.21201 19.536 8.99801 19.992 8.85801C20.448 8.71801 20.92 8.64801 21.408 8.64801C21.728 8.64801 22.048 8.68601 22.368 8.76201C22.688 8.83801 22.974 8.97001 23.226 9.15801C23.478 9.34601 23.684 9.59401 23.844 9.90201C24.004 10.21 24.084 10.592 24.084 11.048V11.048Z" fill="white"/>
</svg>
