<svg width="34" height="26" viewBox="0 0 34 26" fill="none" xmlns="http://www.w3.org/2000/svg">
<rect y="3" width="34" height="20" rx="1" fill="#292929"/>
<path d="M9.49001 17V8.73199H11.374V15.296H15.298V17H9.49001Z" fill="white"/>
<path d="M24.5079 14.528C24.5079 14.88 24.4559 15.208 24.3519 15.512C24.2479 15.808 24.0919 16.068 23.8839 16.292C23.6839 16.516 23.4319 16.692 23.1279 16.82C22.8319 16.94 22.4879 17 22.0959 17H18.0759V8.73199H21.9399C22.3719 8.73199 22.7399 8.79599 23.0439 8.92399C23.3479 9.04399 23.5959 9.20799 23.7879 9.41599C23.9879 9.62399 24.1319 9.86399 24.2199 10.136C24.3079 10.408 24.3519 10.696 24.3519 11C24.3519 11.144 24.3279 11.296 24.2799 11.456C24.2399 11.616 24.1759 11.772 24.0879 11.924C24.0079 12.076 23.9039 12.216 23.7759 12.344C23.6479 12.472 23.4999 12.576 23.3319 12.656C23.5319 12.752 23.7039 12.876 23.8479 13.028C23.9999 13.172 24.1239 13.332 24.2199 13.508C24.3159 13.676 24.3879 13.852 24.4359 14.036C24.4839 14.212 24.5079 14.376 24.5079 14.528ZM22.3719 11.216C22.3719 10.984 22.3039 10.796 22.1679 10.652C22.0319 10.5 21.7839 10.424 21.4239 10.424H19.9839V11.924H21.4239C21.7599 11.924 21.9999 11.86 22.1439 11.732C22.2959 11.596 22.3719 11.424 22.3719 11.216ZM22.4559 14.456C22.4559 14.2 22.3799 13.984 22.2279 13.808C22.0839 13.632 21.8439 13.544 21.5079 13.544H19.9839V15.308H21.5079C21.8199 15.308 22.0559 15.232 22.2159 15.08C22.3759 14.92 22.4559 14.712 22.4559 14.456Z" fill="white"/>
</svg>
