<svg width="34" height="26" viewBox="0 0 34 26" fill="none" xmlns="http://www.w3.org/2000/svg">
<rect y="3" width="34" height="20" rx="1" fill="#292929"/>
<path fill-rule="evenodd" clip-rule="evenodd" d="M13.34 8.73199C13.796 8.73199 14.184 8.80799 14.504 8.95999C14.824 9.112 15.086 9.31199 15.29 9.55999C15.494 9.808 15.642 10.09 15.734 10.406C15.826 10.722 15.872 11.04 15.872 11.36C15.872 11.576 15.84 11.794 15.776 12.014C15.712 12.234 15.622 12.442 15.506 12.638C15.39 12.834 15.248 13.018 15.08 13.19C14.912 13.362 14.724 13.508 14.516 13.628L15.992 17H13.952L12.704 13.952H11.528V17H9.62V8.73199H13.34ZM11.528 12.284H12.944C13.296 12.284 13.55 12.194 13.706 12.014C13.862 11.834 13.94 11.616 13.94 11.36C13.94 11.104 13.86 10.886 13.7 10.706C13.54 10.526 13.288 10.436 12.944 10.436H11.528V12.284ZM22.288 10.448V17H20.38V10.448H18.28V8.73199H24.376V10.448H22.288Z" fill="white"/>
</svg>
