<svg width="26" height="26" viewBox="0 0 26 26" fill="none" xmlns="http://www.w3.org/2000/svg">
<g clip-path="url(#clip0_5_3231)">
<path opacity="0.05" fill-rule="evenodd" clip-rule="evenodd" d="M13 26C20.1797 26 26 20.1797 26 13C26 5.8203 20.1797 0 13 0C5.8203 0 0 5.8203 0 13C0 20.1797 5.8203 26 13 26ZM13 24C19.0751 24 24 19.0751 24 13C24 6.92487 19.0751 2 13 2C6.92487 2 2 6.92487 2 13C2 19.0751 6.92487 24 13 24Z" fill="white"/>
<path fill-rule="evenodd" clip-rule="evenodd" d="M9 8C9 7.44772 9.44772 7 10 7H11H15C16.3807 7 17.5 8.11929 17.5 9.5V11C17.5 11.6419 17.2984 12.2367 16.9551 12.7245C17.5949 13.2747 18 14.09 18 15V16C18 17.6569 16.6569 19 15 19H10C9.44772 19 9 18.5523 9 18V8ZM11 14V17H14.5C15.3284 17 16 16.3284 16 15.5C16 14.6716 15.3284 14 14.5 14H11ZM11 12V9H14C14.8284 9 15.5 9.67157 15.5 10.5C15.5 11.3284 14.8284 12 14 12H11Z" fill="#FF4242"/>
</g>
<defs>
<clipPath id="clip0_5_3231">
<rect width="26" height="26" fill="white"/>
</clipPath>
</defs>
</svg>
