<svg width="34" height="26" viewBox="0 0 34 26" fill="none" xmlns="http://www.w3.org/2000/svg">
<rect y="3" width="34" height="20" rx="1" fill="#292929"/>
<path d="M12.87 8.73199C13.326 8.73199 13.714 8.80799 14.034 8.95999C14.354 9.11199 14.614 9.31199 14.814 9.55999C15.022 9.80799 15.17 10.092 15.258 10.412C15.354 10.724 15.402 11.04 15.402 11.36C15.402 11.576 15.37 11.796 15.306 12.02C15.242 12.236 15.15 12.444 15.03 12.644C14.918 12.836 14.778 13.02 14.61 13.196C14.442 13.364 14.254 13.508 14.046 13.628L15.522 17H13.482L12.234 13.952H11.058V17H9.14999V8.73199H12.87ZM11.058 12.284H12.474C12.826 12.284 13.078 12.196 13.23 12.02C13.39 11.836 13.47 11.616 13.47 11.36C13.47 11.104 13.39 10.888 13.23 10.712C13.07 10.528 12.818 10.436 12.474 10.436H11.058V12.284Z" fill="white"/>
<path d="M24.8476 14.528C24.8476 14.88 24.7956 15.208 24.6916 15.512C24.5876 15.808 24.4316 16.068 24.2236 16.292C24.0236 16.516 23.7716 16.692 23.4676 16.82C23.1716 16.94 22.8276 17 22.4356 17H18.4156V8.73199H22.2796C22.7116 8.73199 23.0796 8.79599 23.3836 8.92399C23.6876 9.04399 23.9356 9.20799 24.1276 9.41599C24.3276 9.62399 24.4716 9.86399 24.5596 10.136C24.6476 10.408 24.6916 10.696 24.6916 11C24.6916 11.144 24.6676 11.296 24.6196 11.456C24.5796 11.616 24.5156 11.772 24.4276 11.924C24.3476 12.076 24.2436 12.216 24.1156 12.344C23.9876 12.472 23.8396 12.576 23.6716 12.656C23.8716 12.752 24.0436 12.876 24.1876 13.028C24.3396 13.172 24.4636 13.332 24.5596 13.508C24.6556 13.676 24.7276 13.852 24.7756 14.036C24.8236 14.212 24.8476 14.376 24.8476 14.528ZM22.7116 11.216C22.7116 10.984 22.6436 10.796 22.5076 10.652C22.3716 10.5 22.1236 10.424 21.7636 10.424H20.3236V11.924H21.7636C22.0996 11.924 22.3396 11.86 22.4836 11.732C22.6356 11.596 22.7116 11.424 22.7116 11.216ZM22.7956 14.456C22.7956 14.2 22.7196 13.984 22.5676 13.808C22.4236 13.632 22.1836 13.544 21.8476 13.544H20.3236V15.308H21.8476C22.1596 15.308 22.3956 15.232 22.5556 15.08C22.7156 14.92 22.7956 14.712 22.7956 14.456Z" fill="white"/>
</svg>
