<svg width="26" height="26" viewBox="0 0 26 26" fill="none" xmlns="http://www.w3.org/2000/svg">
<g clip-path="url(#clip0_5_3233)">
<path fill-rule="evenodd" clip-rule="evenodd" d="M13.0429 11.4401L10 7.58578C10 7.58578 9.29289 6.87868 8.58578 7.58578C7.87868 8.29289 8.58578 9 8.58578 9L11.7775 13.0429L8.58579 17.0858C8.58579 17.0858 7.87868 17.7929 8.58579 18.5C9.29289 19.2071 10 18.5 10 18.5L13.0429 14.6457L16.0858 18.5C16.0858 18.5 16.7929 19.2071 17.5 18.5C18.2071 17.7929 17.5 17.0858 17.5 17.0858L14.3082 13.0429L17.5 9C17.5 9 18.2071 8.29289 17.5 7.58578C16.7929 6.87868 16.0858 7.58578 16.0858 7.58578L13.0429 11.4401Z" fill="#1E9DF6"/>
<path opacity="0.05" fill-rule="evenodd" clip-rule="evenodd" d="M13 26C20.1797 26 26 20.1797 26 13C26 5.8203 20.1797 0 13 0C5.8203 0 0 5.8203 0 13C0 20.1797 5.8203 26 13 26ZM13 24C19.0751 24 24 19.0751 24 13C24 6.92487 19.0751 2 13 2C6.92487 2 2 6.92487 2 13C2 19.0751 6.92487 24 13 24Z" fill="white"/>
</g>
<defs>
<clipPath id="clip0_5_3233">
<rect width="26" height="26" fill="white"/>
</clipPath>
</defs>
</svg>
