<svg width="26" height="26" viewBox="0 0 26 26" fill="none" xmlns="http://www.w3.org/2000/svg">
<g clip-path="url(#clip0_5_3230)">
<path opacity="0.05" fill-rule="evenodd" clip-rule="evenodd" d="M13 26C20.1797 26 26 20.1797 26 13C26 5.8203 20.1797 0 13 0C5.8203 0 0 5.8203 0 13C0 20.1797 5.8203 26 13 26ZM13 24C19.0751 24 24 19.0751 24 13C24 6.92487 19.0751 2 13 2C6.92487 2 2 6.92487 2 13C2 19.0751 6.92487 24 13 24Z" fill="white"/>
<path fill-rule="evenodd" clip-rule="evenodd" d="M8.3071 9.62131L12 13.3142V19C12 19 12 20 13 20C14 20 14 19 14 19V13.2782L17.6568 9.62131C17.6568 9.62131 18.364 8.9142 17.6568 8.20709C16.9497 7.49999 16.2426 8.20709 16.2426 8.20709L12.982 11.4678L9.72131 8.20709C9.72131 8.20709 9.0142 7.49999 8.3071 8.20709C7.59999 8.9142 8.3071 9.62131 8.3071 9.62131Z" fill="#FFCD15"/>
</g>
<defs>
<clipPath id="clip0_5_3230">
<rect width="26" height="26" fill="white"/>
</clipPath>
</defs>
</svg>
