<svg width="26" height="26" viewBox="0 0 26 26" fill="none" xmlns="http://www.w3.org/2000/svg">
<g clip-path="url(#clip0_5_3232)">
<path opacity="0.05" fill-rule="evenodd" clip-rule="evenodd" d="M13 26C20.1797 26 26 20.1797 26 13C26 5.8203 20.1797 0 13 0C5.8203 0 0 5.8203 0 13C0 20.1797 5.8203 26 13 26ZM13 24C19.0751 24 24 19.0751 24 13C24 6.92487 19.0751 2 13 2C6.92487 2 2 6.92487 2 13C2 19.0751 6.92487 24 13 24Z" fill="white"/>
<path fill-rule="evenodd" clip-rule="evenodd" d="M12.0533 8.03535L8.06816 17.5C8.06816 17.5 7.80934 18.4659 8.77527 18.7248C9.74119 18.9836 10 18.0176 10 18.0176L10.4285 17H15.6397L16.0682 18.0176C16.0682 18.0176 16.327 18.9836 17.2929 18.7248C18.2588 18.4659 18 17.5 18 17.5L14.0149 8.03535C13.9804 7.83488 13.8839 7.61206 13.6502 7.45167C13.5041 7.32785 13.3038 7.23606 13.0341 7.2503C12.7644 7.23606 12.564 7.32785 12.4179 7.45167C12.1843 7.61207 12.0878 7.83488 12.0533 8.03535ZM13.0341 10.8117L11.2706 15H14.7976L13.0341 10.8117Z" fill="#99CF1B"/>
</g>
<defs>
<clipPath id="clip0_5_3232">
<rect width="26" height="26" fill="white"/>
</clipPath>
</defs>
</svg>
